PathFileType	4	(X/Y/Z)	C:\Users\Basilio\Documents\Thesis Gigler\squatting_fais\c3dfiles\019\SLS_front_pre2\markers_experimental.trc
DataRate	CameraRate	NumFrames	NumMarkers	Units	OrigDataRate	OrigDataStartFrame	OrigNumFrames
200.000000	200.000000	4	59	mm	200.000000	209	1677
Frame#	Time	FHD			LBHD			RBHD			C7			T10			CLAV			LSHO			LUUPA			LMUPA			LDUPA			LLEP			LMEP			LRAD			LUL			LRFIN			RSHO			RUPA1			RMUPA			RDUPA			RLEP			RMEP			RRAD			RUL			RUFIN			LASI			RASI			USACR			LSACR			RSACR			LTHI1			LTHI2			LTHI3			LTHI4			LLFC			LTIB1			LTIB2			LTIB3			LTIB4			LLMAL			LMMAL			LHEE			LMT1			LMT2			LMT5			RTHI2			RTHI3			RTHI4			RLFC			RTIB1			RTIB2			RTIB3			RTIB4			RLMAL			RMMAL			RHEE			RMT1			RMT2			RMT5			RTHI			
		X1	Y1	Z1	X2	Y2	Z2	X3	Y3	Z3	X4	Y4	Z4	X5	Y5	Z5	X6	Y6	Z6	X7	Y7	Z7	X8	Y8	Z8	X9	Y9	Z9	X10	Y10	Z10	X11	Y11	Z11	X12	Y12	Z12	X13	Y13	Z13	X14	Y14	Z14	X15	Y15	Z15	X16	Y16	Z16	X17	Y17	Z17	X18	Y18	Z18	X19	Y19	Z19	X20	Y20	Z20	X21	Y21	Z21	X22	Y22	Z22	X23	Y23	Z23	X24	Y24	Z24	X25	Y25	Z25	X26	Y26	Z26	X27	Y27	Z27	X28	Y28	Z28	X29	Y29	Z29	X30	Y30	Z30	X31	Y31	Z31	X32	Y32	Z32	X33	Y33	Z33	X34	Y34	Z34	X35	Y35	Z35	X36	Y36	Z36	X37	Y37	Z37	X38	Y38	Z38	X39	Y39	Z39	X40	Y40	Z40	X41	Y41	Z41	X42	Y42	Z42	X43	Y43	Z43	X44	Y44	Z44	X45	Y45	Z45	X46	Y46	Z46	X47	Y47	Z47	X48	Y48	Z48	X49	Y49	Z49	X50	Y50	Z50	X51	Y51	Z51	X52	Y52	Z52	X53	Y53	Z53	X54	Y54	Z54	X55	Y55	Z55	X56	Y56	Z56	X57	Y57	Z57	X58	Y58	Z58	X59	Y59	Z59	

210	1.045	-327.7754516601563	1728.377197265625	-695.3936767578126	-445.4985656738282	1677.390747070313	-841.8214111328127	-452.1662597656251	1671.387329101563	-701.9228515625001	-459.6001586914064	1503.638549804688	-760.9432373046876	-482.446746826172	1209.878173828125	-759.4856567382814	-324.1190185546876	1459.785400390625	-767.3875122070314	-385.1260986328126	1498.593383789063	-914.5003051757815	-281.7705078125001	1394.588134765625	-981.2754516601565	-251.3304138183594	1382.918334960938	-944.385681152344	-226.4177398681641	1356.75	-992.6295166015627	-190.0671539306641	1287.740356445313	-1025.800659179688	-215.5055389404297	1239.241088867188	-998.8137817382815	35.3841896057129	1174.615478515625	-967.6060791015627	20.02663040161133	1165.407592773438	-1031.41064453125	105.9029922485352	1149.145629882813	-975.511901855469	-368.9642333984376	1488.56591796875	-623.9401245117189	-285.1032714843751	1351.505981445313	-522.2501220703126	-246.2879791259766	1364.273193359375	-546.9031982421876	-226.9082946777344	1314.467041015625	-514.4331665039064	-164.5344543457032	1276.057495117188	-516.3421020507814	-195.7962036132813	1232.709838867188	-537.6370239257814	57.20760726928712	1172.808837890625	-566.8270263671876	56.10468673706056	1171.790649414063	-498.0455322265626	134.1642608642578	1147.983642578125	-551.9246215820314	-312.5295410156251	1014.695678710938	-885.6622314453127	-296.2940063476563	1010.097717285156	-672.7404785156251	-471.454803466797	1075.12353515625	-764.3925781250001	-475.3181762695314	1042.19384765625	-791.3323364257815	-470.4133605957032	1043.549194335938	-733.5573730468751	-374.4035034179688	760.8864135742189	-975.9216918945315	-333.6030273437501	685.6946411132814	-981.755065917969	-288.5585632324219	691.8905639648439	-966.3950195312502	-357.6678771972657	629.7187500000001	-974.1450805664065	-355.0248718261719	533.6972045898439	-969.627868652344	-310.1135559082032	391.1122436523439	-952.5767822265627	-364.4392700195313	356.1643676757813	-1012.080322265625	-328.3094482421876	348.9765625000001	-988.931091308594	-334.2011413574219	265.2807006835938	-964.0255126953127	-403.6879272460939	143.5381927490235	-1005.276611328125	-392.6334228515626	141.45849609375	-928.8935546875002	-479.1496887207032	116.3200149536133	-962.5434570312502	-272.1072387695313	61.28816986083986	-949.5123291015627	-265.5199890136719	65.15218353271486	-988.4782714843752	-312.6724243164063	52.591121673584	-1040.057983398438	-286.6533508300782	756.4786376953126	-615.3209228515626	-261.9298400878907	764.8603515625001	-639.8240356445314	-311.2152404785157	678.5747680664064	-617.6699829101564	-348.1189270019532	517.4672241210939	-651.9191284179689	-309.4906616210938	339.4988098144532	-721.1846313476564	-357.5812072753907	255.8906860351563	-665.1135253906251	-326.2922668457032	256.1918640136719	-700.3631591796876	-337.1256713867188	216.1555786132813	-742.3012084960939	-393.381561279297	129.199447631836	-700.1967163085939	-379.7400512695313	135.8519897460938	-775.2088012695315	-457.6298217773439	105.3290252685547	-749.8729858398439	-258.4130554199219	56.43375778198244	-776.1269531250002	-249.9508056640626	55.4673309326172	-734.0526733398439	-292.8858337402344	51.62538909912111	-675.6002197265626	-327.3907775878907	807.326354980469	-605.1381835937501	
211	1.05	-327.9788818359376	1728.314453125	-694.6951293945314	-445.7234497070314	1677.362670898438	-841.058532714844	-452.4171752929689	1671.440551757813	-701.1768798828126	-459.836639404297	1503.559936523438	-760.2084350585939	-482.609344482422	1209.8173828125	-758.8818969726564	-324.3656921386719	1459.80126953125	-766.6005249023439	-385.3283996582032	1498.922241210938	-913.2292480468752	-281.1604919433594	1396.712524414063	-980.358093261719	-250.5562591552735	1385.271240234375	-943.3526000976565	-225.2180175781251	1359.725341796875	-991.6077880859377	-187.9417266845703	1291.59423828125	-1025.076416015625	-212.6901550292969	1242.493774414063	-998.5467529296877	39.01143264770509	1181.315551757813	-966.3114013671877	24.64344215393067	1172.563720703125	-1030.481811523438	110.0515975952149	1157.030395507813	-973.8967895507815	-369.1730651855469	1488.814697265625	-623.3073120117189	-284.0753173828126	1353.335693359375	-521.6550292968751	-245.5238342285157	1366.2119140625	-546.5053710937501	-225.2399902343751	1316.848876953125	-513.8255615234376	-162.5575103759766	1279.23095703125	-515.7993164062501	-193.2149658203126	1235.601440429688	-536.7287597656251	60.62045669555665	1179.153198242188	-566.8428344726564	59.15970993041994	1178.039184570313	-498.4530029296876	138.1522064208985	1155.303955078125	-552.0841064453126	-312.7430725097657	1014.2470703125	-884.717712402344	-296.3573608398438	1010.063720703125	-672.0939941406251	-471.3550720214845	1075.063354492188	-763.9109497070314	-474.8227844238282	1041.980102539063	-790.9157714843752	-470.4363098144532	1043.403442382813	-733.1031494140626	-374.1079101562501	760.8950195312501	-975.5288085937502	-333.3041687011719	685.7233276367189	-981.394714355469	-288.2428894042969	691.8991088867189	-965.983093261719	-357.3195495605469	629.6934204101564	-973.8848876953127	-354.6840820312501	533.7031860351564	-969.399353027344	-309.9719238281251	391.1049804687501	-952.3643798828127	-364.2031555175782	356.2339477539063	-1011.916320800781	-328.0419006347657	348.9150695800782	-988.7654418945315	-334.1127624511719	265.2204895019532	-963.8691406250002	-403.679901123047	143.6414489746094	-1005.160705566406	-392.6781616210939	141.4647369384766	-928.8364257812502	-479.2376708984376	116.3476791381836	-962.5613403320315	-272.1573791503907	61.25022888183595	-949.4544067382815	-265.4953613281251	65.2713088989258	-988.218200683594	-312.7689514160157	52.69432830810548	-1040.058227539063	-286.5731201171876	756.5658569335939	-614.8626708984376	-262.2634582519532	764.8475341796876	-640.1023559570314	-311.2752380371094	678.5601806640626	-617.3269042968751	-348.2112731933594	517.4929809570314	-651.6679077148439	-309.4811706542969	339.5219421386719	-720.9753417968751	-357.5802001953126	255.8070983886719	-665.0348510742189	-326.2569885253907	256.1005859375001	-700.1724243164064	-337.0592346191407	216.1323547363282	-742.1731567382814	-393.443817138672	129.1982574462891	-700.1729125976564	-379.6542053222657	135.8452758789063	-775.0048828125002	-456.6202392578126	106.6693649291992	-749.7608642578126	-258.2499694824219	56.2800979614258	-776.0671997070315	-249.9708099365235	55.48218917846681	-734.0631103515626	-292.8489074707032	51.54736709594728	-675.5630493164064	-327.5159606933594	807.2414550781252	-604.7144165039064	
212	1.055	-328.1084899902344	1728.376831054688	-693.9691772460939	-445.885955810547	1677.283935546875	-840.4031372070315	-452.5738525390626	1671.406372070313	-700.5335693359376	-460.2263793945314	1503.473022460938	-759.4868164062501	-482.6114501953126	1209.734130859375	-758.3144531250001	-324.5539550781251	1459.866088867188	-765.8333129882814	-385.8402404785157	1499.33642578125	-912.4705200195315	-280.4890441894532	1398.909912109375	-979.3662109375002	-250.169174194336	1387.585083007813	-942.3181762695315	-224.0922546386719	1362.732177734375	-990.6401977539065	-185.624496459961	1295.1865234375	-1024.40625	-209.7577056884766	1245.832763671875	-998.001403808594	42.5414161682129	1187.793579101563	-964.981872558594	28.44108200073243	1179.585815429688	-1029.250122070313	113.9450073242188	1164.727416992188	-972.1577148437502	-369.5404357910157	1488.97705078125	-622.8566894531251	-283.1526794433594	1355.016967773438	-521.0436401367189	-244.9356384277344	1368.598022460938	-546.0172119140626	-223.7299804687501	1319.345947265625	-513.1272583007814	-160.1513214111328	1283.166748046875	-515.4635009765626	-190.3934936523438	1237.517700195313	-536.3600463867189	63.94897842407228	1185.628051757813	-566.8846435546876	62.60883712768556	1184.809936523438	-498.5281982421876	141.9050903320313	1162.621948242188	-552.2276000976564	-312.7130737304688	1014.262756347656	-884.2438964843752	-296.4882507324219	1010.031921386719	-671.5755004882814	-471.5059509277345	1074.996215820313	-763.3841552734376	-475.2467041015626	1042.047729492188	-790.4593505859377	-470.617889404297	1043.319091796875	-732.6408081054689	-373.7966003417969	760.8912963867189	-975.2100219726565	-332.9645080566407	685.7922973632814	-981.0791015625002	-287.9312438964844	691.9060668945314	-965.6107177734377	-356.9261474609376	629.7260742187501	-973.6128540039065	-354.3141784667969	533.8009643554689	-969.1553955078127	-309.5910339355469	391.0347900390626	-952.156188964844	-363.9574584960938	356.2835083007813	-1011.753845214844	-327.6965026855469	348.9112243652344	-988.5767211914065	-333.9830627441407	265.2431030273438	-963.766296386719	-403.7343750000001	143.7340850830078	-1005.083618164063	-392.603240966797	141.4965972900391	-928.6763916015627	-479.226531982422	116.3458328247071	-962.5662231445315	-266.7301635742188	63.64254379272462	-946.7939453125002	-265.3051147460938	65.27854156494142	-988.156433105469	-312.6636962890626	52.71883392333986	-1039.989135742188	-286.5936889648438	756.5104980468751	-614.5751953125001	-262.0217895507813	764.7781372070314	-639.2681884765626	-311.2256469726563	678.4439697265626	-617.0491333007814	-348.1838989257813	517.5096435546876	-651.4485473632814	-309.4496459960938	339.4024353027344	-720.8203125000001	-357.5617675781251	255.7131500244141	-664.8945312500001	-326.2102355957032	256.0499877929688	-700.0468139648439	-337.0536193847657	216.0609283447266	-742.0334472656251	-393.404998779297	129.1156921386719	-700.1157836914064	-379.5178833007813	135.7178344726563	-774.9773559570315	-457.4125061035157	105.7279586791992	-749.8405151367189	-258.4153747558594	56.42943191528322	-776.0992431640627	-250.0576934814454	55.43920135498048	-734.2105712890626	-292.8673400878907	51.50658798217775	-675.5620727539064	-327.5099182128907	807.1367187500002	-604.2827758789064	
213	1.06	-328.2914733886719	1728.339477539063	-693.3538208007814	-446.095428466797	1677.236083984375	-839.6342773437502	-452.6846923828126	1671.231811523438	-699.9010009765626	-460.5666809082032	1503.384521484375	-758.6992797851564	-482.6440429687501	1209.608154296875	-757.7476806640626	-324.7635803222657	1459.979614257813	-765.1806030273439	-386.2075805664064	1499.713500976563	-911.478454589844	-279.8380737304688	1401.1279296875	-978.400573730469	-249.4574432373047	1389.953857421875	-941.1517333984377	-222.8158569335938	1365.546630859375	-989.4839477539065	-183.5775299072266	1299.011840820313	-1023.665588378906	-207.1005554199219	1249.130249023438	-997.5828247070315	45.75027084350587	1194.224365234375	-963.6492919921877	32.31264877319337	1186.134887695313	-1027.885864257813	117.8655624389649	1172.502563476563	-970.3814697265627	-369.8630065917969	1489.05029296875	-622.4118652343751	-281.9315490722657	1356.63427734375	-520.3254394531251	-244.0335235595704	1370.650268554688	-545.5641479492189	-222.3431549072266	1321.876098632813	-512.5679321289064	-158.1258392333985	1286.53955078125	-514.9880371093751	-187.7983703613282	1240.505859375	-535.6571044921876	67.16689300537111	1191.984497070313	-566.9959716796876	66.15506744384767	1190.93603515625	-498.4411621093751	145.4911499023438	1169.88232421875	-552.5475463867189	-312.6752319335938	1014.306213378906	-883.717712402344	-296.6028137207032	1009.919067382813	-671.0466918945314	-471.5062866210939	1074.982666015625	-762.8552246093751	-474.9609375000001	1041.919677734375	-789.974548339844	-470.6731567382814	1043.286865234375	-732.1486816406251	-373.5075683593751	760.9224243164064	-974.8425903320315	-332.5008850097657	685.7850341796876	-980.6888427734377	-287.5187988281251	691.8978271484376	-965.2222900390627	-356.5426940917969	629.7628173828126	-973.290222167969	-353.8751525878907	533.9385986328126	-968.8511962890627	-309.1512451171876	390.9702148437501	-951.958679199219	-363.6448364257813	356.3560485839844	-1011.607421875	-327.4506225585938	348.8932189941407	-988.4039306640627	-333.8128051757813	265.2651977539063	-963.5900878906252	-403.701385498047	143.8321380615235	-1004.993225097656	-392.7152709960939	141.5787506103516	-928.5880126953127	-479.2195129394532	116.4322052001953	-962.4536132812502	-266.6954345703126	63.66177368164064	-946.794372558594	-265.4768676757813	65.33702087402345	-988.2620239257815	-312.6521911621094	52.78700256347658	-1039.9580078125	-286.6106872558594	756.4885864257814	-614.2330932617189	-261.7913818359376	764.6842651367189	-638.3100585937501	-311.1628723144532	678.3045043945314	-616.5944213867189	-348.0906677246094	517.3512573242189	-651.1577148437501	-309.3455810546876	339.4301757812501	-720.6410522460939	-357.4294433593751	255.6312408447266	-664.6806640625001	-326.1677856445313	255.9702911376954	-699.9869995117189	-336.9633789062501	216.020980834961	-741.9435424804689	-393.4487609863282	129.0529479980469	-700.1097412109376	-379.5602111816407	135.7880249023438	-774.8680419921877	-456.6945190429689	106.6344375610352	-749.7329101562501	-258.2487487792969	56.26859664916994	-776.0684814453127	-249.9650573730469	55.39555740356447	-734.0733642578126	-292.8382873535157	51.47523880004884	-675.5478515625001	-327.6316223144532	807.0486450195315	-603.8538208007814	
